<svg xmlns="http://www.w3.org/2000/svg" xmlns:xlink="http://www.w3.org/1999/xlink" xmlns:lucid="lucid" width="925.57" height="453.17"><g transform="translate(-4114.273368336728 -3575.9940172831125)" lucid:page-tab-id="0_0"><path d="M4114.27 3598a22 22 0 0 1 22-22h881.58a22 22 0 0 1 22 22v409.17a22 22 0 0 1-22 22h-881.58a22 22 0 0 1-22-22z" stroke="#000" stroke-opacity="0" stroke-width="3" fill="#fff"/><path d="M4711.2 3966.37a3.62 3.62 0 0 0 3.2 5.3h67.03a3.62 3.62 0 0 0 3.2-5.3l-33.92-64.2a3.17 3.17 0 0 0-5.6 0z" fill="#cfe4ff"/><path d="M4726.12 3971.68h10.06m6.7 0h10.06m6.7 0h10.06m6.7 0h5.03l.74-.08.7-.22.65-.37.56-.48.45-.6.3-.66.2-.73v-.74l-.13-.74-.27-.7-2.04-3.84m-2.72-5.14l-4.07-7.7m-2.7-5.14l-4.07-7.7m-2.72-5.14l-4.06-7.7m-2.7-5.14l-4.08-7.7m-2.7-5.14l-2.05-3.86-.37-.56-.5-.48-.6-.35-.64-.22-.7-.07-.67.07-.65.22-.6.35-.5.48-.37.57-2.03 3.85m-2.7 5.13l-4.08 7.7m-2.72 5.15l-4.07 7.7m-2.7 5.14l-4.07 7.7m-2.72 5.14l-4.06 7.7m-2.7 5.14l-2.05 3.85-.28.7-.13.72v.73l.18.73.32.67.44.6.56.48.65.38.7.22.74.08h5.02" stroke="#1071e5" stroke-width="3" fill="none"/><use xlink:href="#a" transform="matrix(1,0,0,1,4712.344473592975,3900.600767145583) translate(12.653148148148146 61.343333333333334)"/><path d="M4521.94 3811.15a3.62 3.62 0 0 0 3.2 5.3h67.03a3.62 3.62 0 0 0 3.2-5.3l-33.9-64.2a3.17 3.17 0 0 0-5.62 0z" fill="#cfe4ff"/><path d="M4536.87 3816.46h10.05m6.7 0h10.06m6.7 0h10.06m6.7 0h5.03l.74-.08.72-.22.65-.37.56-.5.44-.6.32-.66.16-.72.02-.75-.13-.73-.28-.7-2.03-3.84m-2.72-5.14l-4.06-7.7m-2.72-5.14l-4.07-7.7m-2.7-5.14l-4.08-7.7m-2.72-5.14l-4.07-7.7m-2.7-5.14l-2.04-3.86-.4-.56-.48-.48-.6-.35-.64-.22-.68-.07-.7.07-.64.22-.58.35-.5.48-.4.57-2.02 3.85m-2.7 5.13l-4.08 7.7m-2.72 5.15l-4.07 7.7m-2.7 5.14l-4.08 7.7m-2.7 5.14l-4.08 7.7m-2.73 5.14l-2.03 3.85-.28.7-.13.72.02.74.17.74.32.67.45.6.55.5.64.36.7.22.74.08h5.02" stroke="#1071e5" stroke-width="3" fill="none"/><use xlink:href="#a" transform="matrix(1,0,0,1,4523.088979591701,3745.3808078434463) translate(12.653148148148146 61.343333333333334)"/><path d="M4747.9 3816.25v65.23" stroke="#1071e5" stroke-width="3" stroke-linejoin="round" fill="none"/><path d="M4747.9 3814.75l1.5-.08v1.62h-2.96v-1.66z" stroke="#1071e5" stroke-width=".05" fill="#1071e5"/><path d="M4747.9 3895.97l-7.5-13h15z" stroke="#1071e5" stroke-width="3" fill="#1071e5"/><path d="M4747.82 3816.24v.17l-.1.55-.1.54-.12.53-.15.54-.18.55-.2.55-.24.56-.27.57-.3.6-.35.6-.4.6-.43.64-.5.67-.58.7-.67.73-.75.77-.88.82-1 .87-1.2.93-1.4 1.02-1.66 1.1-2.02 1.23-2.48 1.36-3.1 1.54-4 1.77-5.28 2.08-7.34 2.55-11.1 3.33-21 5.34-74.46 17.26-11.1 3.33-7.36 2.55-5.28 2.08-3.98 1.77-3.1 1.54-2.5 1.36-2 1.23-1.68 1.1-1 .72" stroke="#1071e5" stroke-width="3" stroke-linejoin="round" fill="none"/><path d="M4747.9 3814.75l1.5-.08-.05 1.65-2.95-.07.04-1.6z" stroke="#1071e5" stroke-width=".05" fill="#1071e5"/><path d="M4560.24 3894.72l.52-15 12.72 7.95z" stroke="#1071e5" stroke-width="3" fill="#1071e5"/><path d="M4369.3 3815.77v.07l-.07.5-.1.52-.12.5-.13.52-.17.52-.2.52-.22.53-.26.55-.3.55-.3.57-.4.58-.4.6-.5.64-.53.66-.64.7-.72.73-.83.78-.95.84-1.13.9-1.33.96-1.6 1.06-1.93 1.16-2.37 1.3-2.96 1.47-3.8 1.67-5.02 1.98-6.95 2.42-10.4 3.12-18.7 4.73-81.7 18.55-10.4 3.12-6.95 2.4-5.02 2-3.8 1.68-2.96 1.47-2.36 1.3-1.93 1.16-1.6 1.07-.2.16" stroke="#1071e5" stroke-width="3" stroke-linejoin="round" fill="none"/><path d="M4369.4 3814.27l1.48-.08-.04 1.64-2.95-.06.03-1.62z" stroke="#1071e5" stroke-width=".05" fill="#1071e5"/><path d="M4181.8 3891.9l.8-15 12.57 8.2z" stroke="#1071e5" stroke-width="3" fill="#1071e5"/><path d="M4558.77 3674.05l.02.13.07.4.1.4.1.42.14.4.16.42.18.42.2.43.24.44.26.47.3.47.34.5.38.5.44.53.5.56.6.6.66.62.78.68.92.72 1.1.8 1.3.85 1.56.96 1.94 1.06 2.42 1.2 3.1 1.38 4.1 1.6 5.57 1.94 8.1 2.44 13.12 3.34 31.98 6.63 59.65 11.84 13.1 3.33 8.12 2.43 5.58 1.94 4.08 1.6 3.1 1.4 2.43 1.2 1.94 1.05.14.08" stroke="#1071e5" stroke-width="3" stroke-linejoin="round" fill="none"/><path d="M4558.64 3672.56l1.5-.1.02 1.6-2.95.07-.02-1.68z" stroke="#1071e5" stroke-width=".05" fill="#1071e5"/><path d="M4746.06 3741l-13.94-5.57 11.8-9.28z" stroke="#1071e5" stroke-width="3" fill="#1071e5"/><path d="M4307.06 3923.95a16 16 0 0 1 16-16h92.68a16 16 0 0 1 16 16v20.64a16 16 0 0 1-16 16h-92.68a16 16 0 0 1-16-16z" stroke="#1071e5" stroke-width="3" fill="#cfe4ff"/><use xlink:href="#b" transform="matrix(1,0,0,1,4313.291830105261,3910.5790327657337) translate(13.238888888888894 29.8)"/><path d="M4369.4 3815.77v73.2" stroke="#1071e5" stroke-width="3" stroke-linejoin="round" fill="none"/><path d="M4369.4 3814.27l1.48-.08v1.6h-2.95v-1.64z" stroke="#1071e5" stroke-width=".05" fill="#1071e5"/><path d="M4369.4 3903.45l-7.5-13h15z" stroke="#1071e5" stroke-width="3" fill="#1071e5"/><path d="M4592.85 3636.86c0 18.88-15.3 34.2-34.2 34.2-18.88 0-34.2-15.32-34.2-34.2 0-18.9 15.32-34.2 34.2-34.2 18.9 0 34.2 15.3 34.2 34.2z" stroke="#1071e5" stroke-width="3" fill="#cfe4ff"/><use xlink:href="#c" transform="matrix(1,0,0,1,4527.880282674192,3606.0818593904714) translate(18.727222222222224 36.3)"/><use xlink:href="#d" transform="matrix(1,0,0,1,4527.880282674192,3606.0818593904714) translate(34.61611111111111 36.3)"/><path d="M4523.15 3922.36a7.24 7.24 0 0 1 2.12-5.12l16.35-16.35a7.24 7.24 0 0 1 5.12-2.14h23.83a7.24 7.24 0 0 1 5.12 2.13l16.34 16.34a7.24 7.24 0 0 1 2.12 5.12v23.82a7.24 7.24 0 0 1-2.12 5.12l-16.35 16.35a7.24 7.24 0 0 1-5.13 2.12h-23.83a7.24 7.24 0 0 1-5.12-2.12l-16.35-16.35a7.24 7.24 0 0 1-2.12-5.12z" stroke="#1071e5" stroke-width="3" fill="#cfe4ff"/><use xlink:href="#e" transform="matrix(1,0,0,1,4526.701582307782,3902.3147545663483) translate(5.819444444444446 36.8)"/><path d="M4558.54 3674.05l-.02.1-.07.4-.1.4-.1.4-.14.4-.14.42-.18.42-.2.4-.23.45-.26.45-.3.46-.34.5-.38.5-.43.5-.5.57-.58.58-.66.64-.76.66-.9.72-1.1.78-1.27.86-1.56.94-1.9 1.05-2.4 1.18-3.07 1.37-4.04 1.6-5.53 1.9-8 2.4-12.9 3.3-30.37 6.3-62.5 12.33-12.9 3.3-8.02 2.4-5.52 1.9-4.03 1.6-3.07 1.36-2.4 1.18-1.87 1.03" stroke="#1071e5" stroke-width="3" stroke-linejoin="round" fill="none"/><path d="M4558.64 3672.56l1.5-.1-.04 1.66-2.95-.06.03-1.6z" stroke="#1071e5" stroke-width=".05" fill="#1071e5"/><path d="M4371.27 3740.53l2.2-14.84 11.75 9.33z" stroke="#1071e5" stroke-width="3" fill="#1071e5"/><path d="M4782.1 3779.05c0 18.88-15.3 34.2-34.2 34.2-18.87 0-34.18-15.32-34.18-34.2 0-18.9 15.3-34.2 34.2-34.2 18.88 0 34.2 15.3 34.2 34.2z" stroke="#1071e5" stroke-width="3" fill="#cfe4ff"/><use xlink:href="#c" transform="matrix(1,0,0,1,4717.135776675467,3748.273495630622) translate(18.727222222222224 36.3)"/><use xlink:href="#d" transform="matrix(1,0,0,1,4717.135776675467,3748.273495630622) translate(34.61611111111111 36.3)"/><path d="M4403.6 3778.57c0 18.9-15.3 34.2-34.2 34.2-18.88 0-34.2-15.3-34.2-34.2 0-18.88 15.32-34.2 34.2-34.2 18.9 0 34.2 15.32 34.2 34.2z" stroke="#1071e5" stroke-width="3" fill="#cfe4ff"/><use xlink:href="#c" transform="matrix(1,0,0,1,4338.624788672917,3747.7956333221005) translate(18.727222222222224 36.3)"/><use xlink:href="#d" transform="matrix(1,0,0,1,4338.624788672917,3747.7956333221005) translate(34.61611111111111 36.3)"/><path d="M4558.66 3674.06v52.2" stroke="#1071e5" stroke-width="3" stroke-linejoin="round" fill="none"/><path d="M4558.64 3672.56l1.5-.1v1.63h-2.96v-1.65z" stroke="#1071e5" stroke-width=".05" fill="#1071e5"/><path d="M4558.66 3740.75l-7.5-13h15z" stroke="#1071e5" stroke-width="3" fill="#1071e5"/><path d="M4171.66 3899.42a12 12 0 0 1 16.97 0l26.72 26.72a12 12 0 0 1 0 16.97l-26.72 26.72a12 12 0 0 1-16.97 0l-26.72-26.7a12 12 0 0 1 0-16.98z" stroke="#1071e5" stroke-width="3" fill="#cfe4ff"/><use xlink:href="#f" transform="matrix(1,0,0,1,4140.825327340425,3895.3009156316784) translate(25.535555555555554 45.4875)"/><path d="M4778.52 3846.86v63.32" stroke="#008573" stroke-width="3" stroke-linejoin="round" fill="none"/><path d="M4778.5 3845.36l1.5-.08v1.62h-2.95v-1.65z" stroke="#008573" stroke-width=".05" fill="#008573"/><path d="M4778.52 3924.68l-7.5-13h15z" stroke="#008573" stroke-width="3" fill="#008573"/><path d="M4589.4 3704.66v.14l.08.4.1.4.1.4.14.42.16.4.18.43.2.44.23.43.25.45.3.47.34.5.38.5.43.53.52.56.58.6.67.62.78.68.92.72 1.1.8 1.3.86 1.57.95 1.93 1.06 2.43 1.2 3.1 1.38 4.08 1.62 5.58 1.94 8.1 2.43 13.12 3.33 31.98 6.63 59.65 11.84 13.12 3.34 8.1 2.43 5.6 1.94 4.08 1.62 3.1 1.38 2.42 1.2 1.94 1.06.13.08" stroke="#008573" stroke-width="3" stroke-linejoin="round" fill="none"/><path d="M4589.25 3703.17l1.5-.08.02 1.58-2.94.06-.04-1.68z" stroke="#008573" stroke-width=".05" fill="#008573"/><path d="M4776.67 3771.6l-13.93-5.56 11.78-9.28z" stroke="#008573" stroke-width="3" fill="#008573"/><path d="M4337.67 3954.56a16 16 0 0 1 16-16h92.7a16 16 0 0 1 16 16v20.64a16 16 0 0 1-16 16h-92.7a16 16 0 0 1-16-16z" stroke="#008573" stroke-width="3" fill="#b8f5ed"/><use xlink:href="#b" transform="matrix(1,0,0,1,4343.90408041545,3941.1912830759225) translate(13.238888888888894 29.8)"/><path d="M4400 3846.38v73.2" stroke="#008573" stroke-width="3" stroke-linejoin="round" fill="none"/><path d="M4400 3844.88l1.5-.08v1.62h-2.96v-1.64z" stroke="#008573" stroke-width=".05" fill="#008573"/><path d="M4400 3934.06l-7.5-13h15z" stroke="#008573" stroke-width="3" fill="#008573"/><path d="M4623.46 3667.47c0 18.9-15.3 34.2-34.2 34.2-18.88 0-34.2-15.32-34.2-34.2 0-18.9 15.32-34.2 34.2-34.2 18.9 0 34.2 15.3 34.2 34.2z" stroke="#008573" stroke-width="3" fill="#b8f5ed"/><use xlink:href="#c" transform="matrix(1,0,0,1,4558.492532984381,3636.69410970066) translate(18.727222222222224 36.3)"/><use xlink:href="#d" transform="matrix(1,0,0,1,4558.492532984381,3636.69410970066) translate(34.61611111111111 36.3)"/><path d="M4778.62 3846.86v.03l.07.5.1.5.1.5.15.5.16.5.2.52.22.52.25.53.3.55.3.55.38.58.4.6.48.62.54.64.6.7.72.72.8.76.95.82 1.1.88 1.32.95 1.56 1.03 1.9 1.15 2.33 1.3 2.9 1.43 3.74 1.66 4.93 1.93 6.83 2.37 10.16 3.05 18.02 4.58 84.04 18.93 10.17 3.06 6.82 2.36 4.93 1.95 3.73 1.66 2.92 1.43 2.32 1.28 1.9 1.15 1.52 1" stroke="#008573" stroke-width="3" stroke-linejoin="round" fill="none"/><path d="M4778.5 3845.36l1.5-.08.03 1.6-2.95.05-.03-1.68z" stroke="#008573" stroke-width=".05" fill="#008573"/><path d="M4966.12 3922.16l-13.43-6.68 12.5-8.3z" stroke="#008573" stroke-width="3" fill="#008573"/><path d="M4589.15 3704.66l-.02.12-.07.4-.1.4-.1.4-.14.4-.15.4-.18.42-.2.43-.24.43-.26.45-.3.48-.32.48-.4.5-.42.53-.5.54-.57.6-.68.6-.77.68-.9.7-1.1.8-1.27.85-1.56.94-1.9 1.06-2.4 1.2-3.08 1.35-4.03 1.6-5.52 1.92-8 2.4-12.9 3.3-30.36 6.3-62.52 12.33-12.9 3.28-8 2.4-5.53 1.92-4.03 1.6-3.07 1.36-2.4 1.2-1.86 1.02" stroke="#008573" stroke-width="3" stroke-linejoin="round" fill="none"/><path d="M4589.25 3703.17l1.5-.08-.04 1.64-2.94-.06.03-1.62z" stroke="#008573" stroke-width=".05" fill="#008573"/><path d="M4401.88 3771.14l2.22-14.84 11.74 9.34z" stroke="#008573" stroke-width="3" fill="#008573"/><path d="M4812.72 3809.66c0 18.9-15.3 34.2-34.2 34.2-18.88 0-34.2-15.3-34.2-34.2 0-18.88 15.32-34.2 34.2-34.2 18.9 0 34.2 15.32 34.2 34.2z" stroke="#008573" stroke-width="3" fill="#b8f5ed"/><use xlink:href="#c" transform="matrix(1,0,0,1,4747.748026985656,3778.885745940811) translate(18.727222222222224 36.3)"/><use xlink:href="#d" transform="matrix(1,0,0,1,4747.748026985656,3778.885745940811) translate(34.61611111111111 36.3)"/><path d="M4434.2 3809.18c0 18.9-15.3 34.2-34.2 34.2-18.87 0-34.18-15.3-34.18-34.2 0-18.88 15.3-34.2 34.2-34.2 18.88 0 34.2 15.32 34.2 34.2z" stroke="#008573" stroke-width="3" fill="#b8f5ed"/><use xlink:href="#c" transform="matrix(1,0,0,1,4369.237038983106,3778.407883632289) translate(18.727222222222224 36.3)"/><use xlink:href="#d" transform="matrix(1,0,0,1,4369.237038983106,3778.407883632289) translate(34.61611111111111 36.3)"/><path d="M4589.27 3704.67v49.05" stroke="#008573" stroke-width="3" stroke-linejoin="round" fill="none"/><path d="M4589.25 3703.17l1.5-.08v1.6h-2.96v-1.64z" stroke="#008573" stroke-width=".05" fill="#008573"/><path d="M4589.27 3768.2l-7.5-12.98h15z" stroke="#008573" stroke-width="3" fill="#008573"/><path d="M4959.3 3929.68a12 12 0 0 1 16.96 0l26.72 26.72a12 12 0 0 1 0 16.97l-26.72 26.72a12 12 0 0 1-16.97 0l-26.72-26.73a12 12 0 0 1 0-16.97z" stroke="#008573" stroke-width="3" fill="#b8f5ed"/><use xlink:href="#g" transform="matrix(1,0,0,1,4928.4595536557135,3925.5617379117316) translate(24.56055555555556 45.4875)"/><path d="M4580.78 3776.23a12 12 0 0 1 16.97 0l26.72 26.7a12 12 0 0 1 0 16.98l-26.72 26.73a12 12 0 0 1-16.97 0l-26.72-26.72a12 12 0 0 1 0-16.96z" stroke="#008573" stroke-width="3" fill="#b8f5ed"/><g><use xlink:href="#h" transform="matrix(1,0,0,1,4549.948565653163,3772.109291623244) translate(24.56055555555556 45.4875)"/></g><path d="M4741.8 3995.08a3.62 3.62 0 0 0 3.2 5.3h67.04a3.62 3.62 0 0 0 3.2-5.3l-33.9-64.2a3.17 3.17 0 0 0-5.62 0z" fill="#b8f5ed"/><path d="M4756.74 4000.4h10.05m6.7 0h10.05m6.7 0h10.06m6.72 0h5.02l.74-.1.7-.22.66-.36.55-.5.44-.58.32-.67.17-.73.02-.74-.13-.73-.28-.7-2.03-3.84m-2.7-5.14l-4.08-7.7m-2.7-5.15l-4.08-7.7m-2.7-5.14l-4.08-7.7m-2.72-5.13l-4.07-7.7m-2.7-5.14l-2.04-3.86-.4-.57-.5-.47-.57-.35-.65-.22-.68-.08-.68.08-.65.22-.6.35-.5.47-.38.57-2.03 3.86m-2.73 5.13l-4.07 7.7m-2.7 5.14l-4.08 7.7m-2.7 5.14l-4.08 7.7m-2.72 5.15l-4.06 7.7m-2.72 5.13l-2.03 3.85-.27.7-.13.72.02.74.17.73.3.67.45.6.56.48.66.36.7.23.74.1h5.03" stroke="#008573" stroke-width="3" fill="none"/><g><use xlink:href="#a" transform="matrix(1,0,0,1,4742.956723903164,3929.308586988255) translate(12.653148148148146 61.343333333333334)"/></g><defs><path d="M190 0L58-211 59 0H30v-248h39L202-35l-2-213h31V0h-41" id="i"/><path d="M84 4C-5 8 30-112 23-190h32v120c0 31 7 50 39 49 72-2 45-101 50-169h31l1 190h-30c-1-10 1-25-2-33-11 22-28 36-60 37" id="j"/><path d="M24 0v-261h32V0H24" id="k"/><g id="a"><use transform="matrix(0.07407407407407408,0,0,0.07407407407407408,0,0)" xlink:href="#i"/><use transform="matrix(0.07407407407407408,0,0,0.07407407407407408,19.185185185185187,0)" xlink:href="#j"/><use transform="matrix(0.07407407407407408,0,0,0.07407407407407408,34,0)" xlink:href="#k"/><use transform="matrix(0.07407407407407408,0,0,0.07407407407407408,39.851851851851855,0)" xlink:href="#k"/></g><path d="M100-194c63 0 86 42 84 106H49c0 40 14 67 53 68 26 1 43-12 49-29l28 8c-11 28-37 45-77 45C44 4 14-33 15-96c1-61 26-98 85-98zm52 81c6-60-76-77-97-28-3 7-6 17-6 28h103" id="l"/><path d="M100-194c62-1 85 37 85 99 1 63-27 99-86 99S16-35 15-95c0-66 28-99 85-99zM99-20c44 1 53-31 53-75 0-43-8-75-51-75s-53 32-53 75 10 74 51 75" id="m"/><path d="M115-194c55 1 70 41 70 98S169 2 115 4C84 4 66-9 55-30l1 105H24l-1-265h31l2 30c10-21 28-34 59-34zm-8 174c40 0 45-34 45-75s-6-73-45-74c-42 0-51 32-51 76 0 43 10 73 51 73" id="n"/><path d="M141-36C126-15 110 5 73 4 37 3 15-17 15-53c-1-64 63-63 125-63 3-35-9-54-41-54-24 1-41 7-42 31l-33-3c5-37 33-52 76-52 45 0 72 20 72 64v82c-1 20 7 32 28 27v20c-31 9-61-2-59-35zM48-53c0 20 12 33 32 33 41-3 63-29 60-74-43 2-92-5-92 41" id="o"/><path d="M114-163C36-179 61-72 57 0H25l-1-190h30c1 12-1 29 2 39 6-27 23-49 58-41v29" id="p"/><path d="M85-194c31 0 48 13 60 33l-1-100h32l1 261h-30c-2-10 0-23-3-31C134-8 116 4 85 4 32 4 16-35 15-94c0-66 23-100 70-100zm9 24c-40 0-46 34-46 75 0 40 6 74 45 74 42 0 51-32 51-76 0-42-9-74-50-73" id="q"/><g id="b"><use transform="matrix(0.07222222222222222,0,0,0.07222222222222222,0,0)" xlink:href="#k"/><use transform="matrix(0.07222222222222222,0,0,0.07222222222222222,5.705555555555555,0)" xlink:href="#l"/><use transform="matrix(0.07222222222222222,0,0,0.07222222222222222,20.15,0)" xlink:href="#m"/><use transform="matrix(0.07222222222222222,0,0,0.07222222222222222,34.59444444444444,0)" xlink:href="#n"/><use transform="matrix(0.07222222222222222,0,0,0.07222222222222222,49.038888888888884,0)" xlink:href="#o"/><use transform="matrix(0.07222222222222222,0,0,0.07222222222222222,63.48333333333333,0)" xlink:href="#p"/><use transform="matrix(0.07222222222222222,0,0,0.07222222222222222,72.07777777777777,0)" xlink:href="#q"/></g><path d="M39-94c74 12-11 154 75 146v23c-44 4-70-10-70-52C44-23 55-84 6-82v-22c81 4-7-162 84-157h24v23c-82-15-2 131-75 144" id="r"/><use transform="matrix(0.07222222222222222,0,0,0.07222222222222222,0,0)" xlink:href="#r" id="c"/><path d="M76-40C78 24 84 88 6 75V52C86 64 9-79 80-94c-40-6-34-59-34-106 1-29-11-41-40-38v-23c44-4 70 10 70 52 0 47-12 108 38 105v22c-26 1-39 14-38 42" id="s"/><use transform="matrix(0.07222222222222222,0,0,0.07222222222222222,0,0)" xlink:href="#s" id="d"/><path d="M127-220V0H93v-220H8v-28h204v28h-85" id="t"/><g id="e"><use transform="matrix(0.07222222222222222,0,0,0.07222222222222222,0,0)" xlink:href="#t"/><use transform="matrix(0.07222222222222222,0,0,0.07222222222222222,14.877777777777776,0)" xlink:href="#p"/><use transform="matrix(0.07222222222222222,0,0,0.07222222222222222,23.47222222222222,0)" xlink:href="#j"/><use transform="matrix(0.07222222222222222,0,0,0.07222222222222222,37.916666666666664,0)" xlink:href="#l"/></g><path d="M27 0v-27h64v-190l-56 39v-29l58-41h29v221h61V0H27" id="u"/><g id="f"><use transform="matrix(0.07222222222222222,0,0,0.07222222222222222,0,0)" xlink:href="#u"/><use transform="matrix(0.07222222222222222,0,0,0.07222222222222222,12.494444444444444,0)" xlink:href="#u"/></g><path d="M110-160c48 1 74 30 74 79 0 53-28 85-80 85-65 0-83-55-86-122-5-90 50-162 133-122 14 7 22 21 27 39l-31 6c-5-40-67-38-82-6-9 19-15 44-15 74 11-20 30-34 60-33zm-7 138c34 0 49-23 49-58s-16-56-50-56c-29 0-50 16-49 49 1 36 15 65 50 65" id="v"/><g id="g"><use transform="matrix(0.07222222222222222,0,0,0.07222222222222222,0,0)" xlink:href="#u"/><use transform="matrix(0.07222222222222222,0,0,0.07222222222222222,14.444444444444443,0)" xlink:href="#v"/></g><path d="M101-251c82-7 93 87 43 132L82-64C71-53 59-42 53-27h129V0H18c2-99 128-94 128-182 0-28-16-43-45-43s-46 15-49 41l-32-3c6-41 34-60 81-64" id="w"/><path d="M101-251c68 0 85 55 85 127S166 4 100 4C33 4 14-52 14-124c0-73 17-127 87-127zm-1 229c47 0 54-49 54-102s-4-102-53-102c-51 0-55 48-55 102 0 53 5 102 54 102" id="x"/><g id="h"><use transform="matrix(0.07222222222222222,0,0,0.07222222222222222,0,0)" xlink:href="#w"/><use transform="matrix(0.07222222222222222,0,0,0.07222222222222222,14.444444444444443,0)" xlink:href="#x"/></g></defs></g></svg>
